<?xml version="1.0" encoding="UTF-8"?>
<svg version="1.1" xmlns="http://www.w3.org/2000/svg" width="332" height="161">
<path d="M0 0 C0.94447998 -0.00133942 1.88895996 -0.00267883 2.86206055 -0.00405884 C19.97992445 0.00117631 36.70637148 1.02267195 53.6875 3.25 C55.2039209 3.44215088 55.2039209 3.44215088 56.75097656 3.63818359 C59.44183612 3.98696495 62.12751023 4.35879025 64.8125 4.75 C65.55886719 4.85610596 66.30523437 4.96221191 67.07421875 5.0715332 C75.4839316 6.43890943 79.68322398 10.74776996 84.6875 17.25 C89.41210114 23.98629262 95.6875 33.82397983 95.6875 42.25 C89.14419413 42.38150538 82.64404146 42.18252014 76.11328125 41.8125 C-36.18425228 33.8542618 -36.18425228 33.8542618 -140.3125 68.25 C-138.8123862 64.04398474 -135.82009233 62.20718776 -132.1875 59.9375 C-131.56496338 59.54651123 -130.94242676 59.15552246 -130.30102539 58.75268555 C-113.77422376 48.65720246 -95.16177555 43.53771003 -76.25 40 C-75.44997559 39.84893799 -74.64995117 39.69787598 -73.82568359 39.54223633 C-57.36091775 36.67521317 -40.92233362 35.96981269 -24.24137115 36.09967041 C-20.85805258 36.12573235 -17.47489495 36.13836052 -14.0914917 36.14794922 C-6.91508769 36.17053832 0.26118044 36.20903446 7.4375 36.25 C15.78136564 36.29752826 24.12515362 36.33817847 32.46912384 36.36187744 C35.77247277 36.37466363 39.07557493 36.39966248 42.37884521 36.42529297 C62.4741598 37.54185318 62.4741598 37.54185318 80.6875 31.25 C81.53880699 27.63194531 81.37538014 25.43856666 79.49609375 22.19140625 C70.08218361 10.19150634 52.4727282 8.13569511 38.25 6.0625 C21.59669495 4.13215165 4.8064899 4.0018026 -11.9375 3.6875 C-14.11979748 3.64417211 -16.30208922 3.60055407 -18.484375 3.55664062 C-23.76035537 3.45109237 -29.03639451 3.34908611 -34.3125 3.25 C-28.05563541 -3.00686459 -8.67488096 0.00728012 0 0 Z " fill="#FCFDFD" transform="translate(172.3125,10.75)"/>
<path d="M0 0 C0 0.33 0 0.66 0 1 C-1.78446533 1.20363159 -1.78446533 1.20363159 -3.60498047 1.41137695 C-8.0603366 1.92224391 -12.51421891 2.44511324 -16.96777344 2.97143555 C-18.88764505 3.19666738 -20.8078908 3.41873525 -22.72851562 3.63745117 C-25.50497529 3.95420424 -28.27984565 4.28268894 -31.0546875 4.61328125 C-31.8998996 4.70716629 -32.74511169 4.80105133 -33.61593628 4.89778137 C-39.64454618 5.63198911 -45.23720207 7.09512749 -51 9 C-37.41436862 18.05708759 -15.28657411 14.93715834 0 12 C7.47648651 10.13982154 13.90921728 7.14772063 20.57421875 3.328125 C23.29532348 1.83830921 26.00595755 0.80920066 29 0 C35.76163805 6.3518418 43.567803 14.22891362 44.1875 23.9375 C44.125625 24.618125 44.06375 25.29875 44 26 C43.34 26 42.68 26 42 26 C41.67386719 25.16855469 41.34773437 24.33710937 41.01171875 23.48046875 C40.57472656 22.39378906 40.13773438 21.30710937 39.6875 20.1875 C39.04361328 18.56908203 39.04361328 18.56908203 38.38671875 16.91796875 C37.12479024 14.26258679 36.33483398 12.72800831 34 11 C23.77349935 7.56945413 12.65770724 13.087496 3.125 16.5 C-16.65576138 23.51709008 -38.57796127 27.2757136 -58.34765625 18.01953125 C-62.28334003 16.10561456 -66.15014186 14.0806037 -70 12 C-70 9 -70 9 -68 7 C-65.03681912 6.23376333 -62.12544965 5.5802597 -59.125 5 C-58.24618164 4.82629883 -57.36736328 4.65259766 -56.46191406 4.47363281 C-47.03546303 2.6900693 -37.55475359 1.77251199 -28 1 C-36.34582891 0.18544043 -44.61268118 -0.17063808 -52.99609375 -0.203125 C-54.21111572 -0.21009399 -55.4261377 -0.21706299 -56.67797852 -0.22424316 C-60.59783495 -0.24159318 -64.51761358 -0.2484229 -68.4375 -0.25 C-69.1060564 -0.25058914 -69.77461281 -0.25117828 -70.4634285 -0.25178528 C-92.76362493 -0.26565286 -114.84019759 0.3740566 -137 3 C-137.67359558 3.07968018 -138.34719116 3.15936035 -139.04119873 3.24145508 C-152.19378041 4.81095502 -165.32118689 6.5629605 -178.25 9.484375 C-180.90610825 9.9823953 -183.30540773 10.09906589 -186 10 C-140.71372687 -20.19084875 -51.18765785 -5.63233545 0 0 Z " fill="#FCFDFD" transform="translate(262,58)"/>
<path d="M0 0 C1.52785629 -0.00151062 1.52785629 -0.00151062 3.08657837 -0.00305176 C57.92534567 0.03356378 57.92534567 0.03356378 71.75 9.25 C62.16377392 8.51218068 52.6280169 7.47744876 43.08007812 6.35546875 C6.61569563 2.18449952 -48.90747924 -2.62457901 -80.13671875 21.4140625 C-88.58696533 28.75531184 -93.0310929 36.97510937 -94.25 48.25 C-94.92546875 48.35957031 -95.6009375 48.46914063 -96.296875 48.58203125 C-97.18890625 48.74058594 -98.0809375 48.89914063 -99 49.0625 C-99.88171875 49.21332031 -100.7634375 49.36414062 -101.671875 49.51953125 C-104.31965747 50.08644425 -104.31965747 50.08644425 -106.265625 51.88671875 C-108.25 53.25 -108.25 53.25 -110.69921875 53 C-111.54097656 52.7525 -112.38273437 52.505 -113.25 52.25 C-118.07535767 51.24242124 -122.84170915 50.25066355 -127.75 49.75 C-131.25 49.25 -131.25 49.25 -133.25 47.25 C-133.10341532 43.29221359 -132.8449552 40.97929992 -130.3125 37.875 C-126.49118328 34.86426561 -123.31086116 35.13130425 -118.625 35.1875 C-117.56539062 35.19426758 -117.56539062 35.19426758 -116.484375 35.20117188 C-114.73954725 35.21296125 -112.994763 35.23089676 -111.25 35.25 C-108.94096728 39.23352209 -109.38483472 41.75114053 -110.25 46.25 C-111.24 46.25 -112.23 46.25 -113.25 46.25 C-113.91 44.27 -114.57 42.29 -115.25 40.25 C-119.59378986 39.23981631 -122.308684 38.99781943 -126.25 41.25 C-126.58 42.24 -126.91 43.23 -127.25 44.25 C-126.033125 44.1675 -124.81625 44.085 -123.5625 44 C-119.15144994 43.97686512 -117.66808941 45.49885487 -114.25 48.25 C-111.25495687 48.88454304 -108.30039416 49.07891034 -105.25 49.25 C-104.88648437 48.06019531 -104.52296875 46.87039062 -104.1484375 45.64453125 C-102.1033591 39.52248237 -99.44748365 33.68080159 -96.74414062 27.82788086 C-95.87120863 25.92925377 -95.01765579 24.02261939 -94.1640625 22.11523438 C-93.60273059 20.89269216 -93.04026986 19.67066747 -92.4765625 18.44921875 C-91.72753662 16.80699341 -91.72753662 16.80699341 -90.96337891 15.1315918 C-88.53250711 11.04330741 -86.01510571 8.8811081 -81.53100586 7.27783203 C-73.08893101 5.46494398 -64.6612579 4.29227502 -56.0847168 3.36962891 C-53.81787498 3.12557867 -51.55250178 2.8704061 -49.28710938 2.61328125 C-32.83925624 0.76899705 -16.5476917 0.01137655 0 0 Z " fill="#FCFDFD" transform="translate(170.25,3.75)"/>
<path d="M0 0 C4.516875 -0.061875 9.03375 -0.12375 13.6875 -0.1875 C15.81191528 -0.22846802 15.81191528 -0.22846802 17.97924805 -0.27026367 C19.10371338 -0.27775635 20.22817871 -0.28524902 21.38671875 -0.29296875 C22.53358154 -0.3086792 23.68044434 -0.32438965 24.86206055 -0.34057617 C28.37992719 0.04123539 30.19245628 0.88109323 33 3 C35.45876515 6.68814773 35.6943399 9.716843 35 14 C32.93228896 17.27981751 31.22880989 18.84746007 28 21 C28.84884766 22.15628906 28.84884766 22.15628906 29.71484375 23.3359375 C30.44832031 24.33882812 31.18179688 25.34171875 31.9375 26.375 C32.66839844 27.37273437 33.39929688 28.37046875 34.15234375 29.3984375 C36 32 36 32 37 34 C33.14107252 34.69083873 29.82838279 34.94553347 26 34 C22.13750873 29.98354461 19.75272936 25.25818807 18 20 C14.7 20 11.4 20 8 20 C8 24.29 8 28.58 8 33 C8.66 33.33 9.32 33.66 10 34 C6.7 34 3.4 34 0 34 C0 22.78 0 11.56 0 0 Z M9 6 C9 8.64 9 11.28 9 14 C11.41734542 14.08117951 13.83194949 14.14056926 16.25 14.1875 C16.93191406 14.21263672 17.61382812 14.23777344 18.31640625 14.26367188 C21.59199289 14.31137459 23.65348556 14.21085076 26.484375 12.48828125 C26.98453125 11.99714844 27.4846875 11.50601563 28 11 C27.65213292 9.02463255 27.65213292 9.02463255 27 7 C23.81175432 5.40587716 20.37103338 5.89825265 16.875 5.9375 C15.74384766 5.94426758 15.74384766 5.94426758 14.58984375 5.95117188 C12.72652873 5.96296501 10.86325445 5.98090058 9 6 Z " fill="#FDFDFD" transform="translate(48,88)"/>
<path d="M0 0 C-1.32 2.64 -2.64 5.28 -4 8 C-5.670625 7.01 -5.670625 7.01 -7.375 6 C-13.37958349 2.97633963 -19.6174575 3.19942035 -26 5 C-26 6.32 -26 7.64 -26 9 C-21.74961772 10.41679409 -17.42812064 10.31626833 -12.98046875 10.4296875 C-7.28884201 10.68406188 -3.99939268 12.00060732 0 16 C0.75171036 20.44907642 0.56792666 24.01138693 -1.6875 27.9375 C-6.60122411 32.32001069 -11.5330206 32.33842683 -17.8125 32.3125 C-18.58142578 32.32861328 -19.35035156 32.34472656 -20.14257812 32.36132812 C-25.73258754 32.36604543 -29.86988826 31.21700382 -35 29 C-33.90931332 25.22454612 -33.0916909 22.52956528 -30 20 C-29.67 20.99 -29.34 21.98 -29 23 C-25.28756785 24.99900193 -22.1064495 25.24547528 -17.9375 25.1875 C-16.91527344 25.18105469 -15.89304688 25.17460938 -14.83984375 25.16796875 C-12.39927201 25.02361581 -10.33160404 24.69892207 -8 24 C-8 22.35 -8 20.7 -8 19 C-9.14597656 18.96261719 -10.29195312 18.92523438 -11.47265625 18.88671875 C-13.00263446 18.82101416 -14.53258097 18.75456841 -16.0625 18.6875 C-17.19075195 18.65366211 -17.19075195 18.65366211 -18.34179688 18.61914062 C-24.32275577 18.33433306 -29.59781434 17.40218566 -34 13 C-34.74666094 8.58080911 -34.55033368 4.99483395 -32.375 1.0625 C-23.72156655 -6.45232378 -9.80168483 -3.56424903 0 0 Z " fill="#FDFDFD" transform="translate(224,90)"/>
<path d="M0 0 C3.3 0 6.6 0 10 0 C10.66 1.32 11.32 2.64 12 4 C13.73762727 5.85234985 15.48009455 7.62289917 17.3125 9.375 C18.25738281 10.29023437 19.20226562 11.20546875 20.17578125 12.1484375 C20.59770752 12.55239746 21.01963379 12.95635742 21.4543457 13.37255859 C23.76157005 15.80186794 25.85515983 18.42619179 28 21 C28 14.07 28 7.14 28 0 C30.97 0 33.94 0 37 0 C37 11.22 37 22.44 37 34 C33.7 34 30.4 34 27 34 C26.34 32.68 25.68 31.36 25 30 C23.76706696 28.40968811 23.76706696 28.40968811 22.35546875 26.94140625 C21.84306641 26.39033203 21.33066406 25.83925781 20.80273438 25.27148438 C20.26970703 24.70751953 19.73667969 24.14355469 19.1875 23.5625 C18.66607422 23.00240234 18.14464844 22.44230469 17.60742188 21.86523438 C14.47011775 18.50859313 11.26678943 15.23055887 8 12 C7.97104775 15.29164829 7.9532177 18.58326399 7.9375 21.875 C7.92912109 22.81214844 7.92074219 23.74929687 7.91210938 24.71484375 C7.90727539 26.05869141 7.90727539 26.05869141 7.90234375 27.4296875 C7.89448853 28.67081299 7.89448853 28.67081299 7.88647461 29.93701172 C7.86647862 32.06411757 7.86647862 32.06411757 9 34 C6.03 34 3.06 34 0 34 C0 22.78 0 11.56 0 0 Z " fill="#FCFDFC" transform="translate(292,88)"/>
<path d="M0 0 C4.22938829 2.55393468 6.80660552 5.60731656 8.375 10.3125 C8.94511324 16.18186258 9.23566491 21.82091602 5.73828125 26.80859375 C1.85111823 31.09672488 -1.4204905 33.06440408 -7.26953125 33.72265625 C-13.91128071 33.87256816 -18.82909424 33.82010868 -24.625 30.3125 C-29.06398741 25.87351259 -31.55678464 21.70386383 -31.65625 15.30078125 C-31.18523409 9.11869739 -28.67466704 5.16219952 -24.0625 1 C-17.64949028 -3.43977596 -6.96792533 -3.26662662 0 0 Z M-23 10.125 C-24.21836757 14.3892865 -24.19921095 17.98274833 -22.4375 22.0625 C-19.83881315 25.2884561 -17.69129058 26.99930993 -13.51171875 27.6328125 C-9.53086097 27.83352802 -6.90210796 27.42838151 -3.1875 25.875 C0.30432373 22.38317627 1.11305375 19.18470032 1.375 14.3125 C0.47174104 10.24783468 -1.47461177 7.98555668 -4.625 5.3125 C-11.93547112 2.87567629 -18.14631368 3.72695895 -23 10.125 Z " fill="#FDFDFD" transform="translate(277.625,88.6875)"/>
<path d="M0 0 C0 2.31 0 4.62 0 7 C-8.25 6.67 -16.5 6.34 -25 6 C-25 8.64 -25 11.28 -25 14 C-22.72886197 13.85899143 -20.45809275 13.71203245 -18.1875 13.5625 C-16.92292969 13.48128906 -15.65835938 13.40007812 -14.35546875 13.31640625 C-11.00818107 13.12815453 -11.00818107 13.12815453 -8 12 C-8 14.64 -8 17.28 -8 20 C-13.61 20 -19.22 20 -25 20 C-25 22.64 -25 25.28 -25 28 C-12.625 27.505 -12.625 27.505 0 27 C0 29.64 0 32.28 0 35 C-11.22 34.67 -22.44 34.34 -34 34 C-34 22.78 -34 11.56 -34 0 C-26.4203125 -0.2784375 -26.4203125 -0.2784375 -18.6875 -0.5625 C-17.09639404 -0.62381104 -15.50528809 -0.68512207 -13.8659668 -0.74829102 C-11.98905151 -0.81294556 -11.98905151 -0.81294556 -10.07421875 -0.87890625 C-8.14968872 -0.94960327 -8.14968872 -0.94960327 -6.1862793 -1.02172852 C-3 -1 -3 -1 0 0 Z " fill="#FDFDFD" transform="translate(123,88)"/>
<path d="M0 0 C4.681875 -0.103125 9.36375 -0.20625 14.1875 -0.3125 C15.65598389 -0.35802002 17.12446777 -0.40354004 18.63745117 -0.45043945 C19.80252197 -0.46292725 20.96759277 -0.47541504 22.16796875 -0.48828125 C23.35672607 -0.51446533 24.5454834 -0.54064941 25.77026367 -0.56762695 C29.93815737 0.16488139 31.38685773 1.74897556 34 5 C34.84535384 8.40766859 34.64559524 11.55682537 34 15 C32.11484777 17.57637471 30.80665143 18.59667428 28 20 C26.55151418 20.08342159 25.09929131 20.10732861 23.6484375 20.09765625 C22.79765625 20.09443359 21.946875 20.09121094 21.0703125 20.08789062 C19.73613281 20.07532227 19.73613281 20.07532227 18.375 20.0625 C17.4778125 20.05798828 16.580625 20.05347656 15.65625 20.04882812 C13.43747169 20.03702611 11.21872757 20.01909039 9 20 C9.33 24.62 9.66 29.24 10 34 C6.7 34 3.4 34 0 34 C0 22.78 0 11.56 0 0 Z M9 6 C9 8.64 9 11.28 9 14 C11.62527189 14.05382106 14.24944713 14.09358313 16.875 14.125 C17.99455078 14.15013672 17.99455078 14.15013672 19.13671875 14.17578125 C21.09194461 14.1933959 23.04742021 14.10320189 25 14 C25.66 13.34 26.32 12.68 27 12 C26.71016731 8.69316534 26.71016731 8.69316534 25 6 C22.30345146 5.92680379 19.63308542 5.90757463 16.9375 5.9375 C15.79958008 5.94426758 15.79958008 5.94426758 14.63867188 5.95117188 C12.75908129 5.9629932 10.87953101 5.98092922 9 6 Z " fill="#FDFDFD" transform="translate(9,88)"/>
<path d="M0 0 C-1.65 2.64 -3.3 5.28 -5 8 C-6.134375 7.34 -7.26875 6.68 -8.4375 6 C-13.03160821 3.71514264 -16.938442 3.22345783 -22 4 C-25.24724324 5.18081572 -27.23873276 6.03111442 -29.375 8.75 C-30.46133191 12.66079489 -30.46133191 16.33920511 -29.375 20.25 C-26.77802559 23.55524016 -23.71539617 24.76886707 -19.59375 25.32421875 C-13.85734212 25.57475464 -10.51285934 24.83593044 -6 21 C-5.34 20.34 -4.68 19.68 -4 19 C-1.525 22.96 -1.525 22.96 1 27 C-7.54499664 31.97421842 -15.18230428 33.19404407 -25 32 C-30.3120357 30.49598989 -34.24829684 27.8683979 -37 23 C-38.98557805 16.91916723 -39.59852877 12.02386215 -37 6 C-34.46995196 1.64831737 -31.32120949 -0.42243817 -26.75390625 -2.2734375 C-17.6055046 -4.68705836 -8.71854981 -3.17038175 0 0 Z " fill="#FDFDFD" transform="translate(166,90)"/>
<path d="M0 0 C3.0525 -0.0825 6.105 -0.165 9.25 -0.25 C10.20551758 -0.28641602 11.16103516 -0.32283203 12.14550781 -0.36035156 C18.3765315 -0.44209584 18.3765315 -0.44209584 21.578125 1.828125 C23.52288248 4.79868862 23.58049554 6.51702673 23 10 C21 12.375 21 12.375 19 14 C20.33488128 17.59391114 21.96022723 20.75490696 24 24 C21.69 24 19.38 24 17 24 C16.71125 23.2575 16.4225 22.515 16.125 21.75 C15.75375 20.8425 15.3825 19.935 15 19 C14.79375 18.2575 14.5875 17.515 14.375 16.75 C12.60607154 14.4986365 11.65874649 14.60286927 8.875 14.25 C7.59625 14.1675 6.3175 14.085 5 14 C5.33 17.3 5.66 20.6 6 24 C4.02 24 2.04 24 0 24 C0 16.08 0 8.16 0 0 Z M5 3 C5 5.64 5 8.28 5 11 C6.77049689 11.05410687 8.54146849 11.09284119 10.3125 11.125 C11.79169922 11.15980469 11.79169922 11.15980469 13.30078125 11.1953125 C16.22406527 11.20682639 16.22406527 11.20682639 19 9 C18.67 7.35 18.34 5.7 18 4 C14.98509443 2.99503148 12.95818308 2.89664697 9.8125 2.9375 C8.91144531 2.94652344 8.01039063 2.95554688 7.08203125 2.96484375 C6.05142578 2.98224609 6.05142578 2.98224609 5 3 Z " fill="#FDFDFD" transform="translate(259,132)"/>
<path d="M0 0 C3.63 0 7.26 0 11 0 C10.01 0.495 10.01 0.495 9 1 C9 11.56 9 22.12 9 33 C9.66 33.33 10.32 33.66 11 34 C7.37 34 3.74 34 0 34 C0 22.78 0 11.56 0 0 Z " fill="#FDFDFD" transform="translate(230,88)"/>
<path d="M0 0 C3.63 0 7.26 0 11 0 C10.01 0.495 10.01 0.495 9 1 C9 11.56 9 22.12 9 33 C9.66 33.33 10.32 33.66 11 34 C7.37 34 3.74 34 0 34 C0 22.78 0 11.56 0 0 Z " fill="#FDFDFD" transform="translate(173,88)"/>
<path d="M0 0 C3.50613557 1.63574968 5.39830664 4.03205851 7.4375 7.3125 C8.23309108 11.1136574 8.29450182 14.3512119 7 18 C5.10546488 20.89069391 3.12903553 22.53659053 0 24 C-4.80221572 24.89239035 -9.4656617 25.06529767 -14.03515625 23.14453125 C-17.6275187 20.55838334 -19.16696311 17.26412809 -19.9453125 13.0546875 C-20.07044923 8.35312179 -17.88554228 5.11406931 -15.0625 1.5625 C-10.16606456 -0.93568135 -5.37474229 -0.84366726 0 0 Z M-14 6 C-15.59616743 9.19233485 -15.51466114 12.53461497 -15 16 C-13.12984906 18.43119623 -11.71861655 19.64069173 -9 21 C-5.65939504 21.29694266 -3.39065692 21.15093563 -0.25 19.9375 C2.91679553 17.21053718 3.44339504 15.10496157 4 11 C2.80695815 7.28051657 1.98800197 5.55733444 -1.4375 3.625 C-6.59627936 2.36676113 -9.53319713 3.41918057 -14 6 Z " fill="#FCFCFC" transform="translate(142,132)"/>
<path d="M0 0 C1.65 0 3.3 0 5 0 C5.33 6.27 5.66 12.54 6 19 C9.50147041 20.1671568 12.32670036 20.13357453 16 20 C16.66 19.67 17.32 19.34 18 19 C18.33 12.73 18.66 6.46 19 0 C20.65 0 22.3 0 24 0 C24.08120751 2.89640118 24.14059421 5.79050912 24.1875 8.6875 C24.21263672 9.50412109 24.23777344 10.32074219 24.26367188 11.16210938 C24.32170486 15.94015822 24.14903871 19.13423093 21 23 C18.06276222 24.46861889 15.39407643 24.24793404 12.125 24.3125 C10.89007813 24.34988281 9.65515625 24.38726562 8.3828125 24.42578125 C5 24 5 24 2.6171875 22.16796875 C0.3423484 19.11836561 -0.12546863 16.6873281 -0.09765625 12.98828125 C-0.09443359 12.23095703 -0.09121094 11.47363281 -0.08789062 10.69335938 C-0.07951172 9.90767578 -0.07113281 9.12199219 -0.0625 8.3125 C-0.05798828 7.51521484 -0.05347656 6.71792969 -0.04882812 5.89648438 C-0.0370585 3.93095743 -0.01912348 1.96546915 0 0 Z " fill="#FCFCFC" transform="translate(44,132)"/>
<path d="M0 0 C7.59 0 15.18 0 23 0 C23 1.65 23 3.3 23 5 C22.34 4.67 21.68 4.34 21 4 C18.28737884 3.7677354 15.59226874 3.58063765 12.875 3.4375 C12.12089844 3.39431641 11.36679687 3.35113281 10.58984375 3.30664062 C8.72678112 3.2005168 6.86341476 3.09974999 5 3 C5 5.64 5 8.28 5 11 C11.435 10.505 11.435 10.505 18 10 C18 11.65 18 13.3 18 15 C13.71 14.67 9.42 14.34 5 14 C5 16.31 5 18.62 5 21 C10.94 20.67 16.88 20.34 23 20 C23 21.65 23 23.3 23 25 C11.615 24.505 11.615 24.505 0 24 C0 16.08 0 8.16 0 0 Z " fill="#FCFDFD" transform="translate(299,132)"/>
<path d="M0 0 C1.30710937 0.05285156 2.61421875 0.10570312 3.9609375 0.16015625 C8.34294216 1.08981396 9.85418845 2.48822805 12.625 5.9375 C13.6875 8.5 13.6875 8.5 13.625 10.9375 C11.33015755 14.03408487 9.96880922 14.86221898 6.1640625 15.6953125 C4.22660156 15.87707031 4.22660156 15.87707031 2.25 16.0625 C-2.59218418 16.53798502 -6.80980546 17.22731876 -11.375 18.9375 C-12.365 17.6175 -13.355 16.2975 -14.375 14.9375 C-13.77171875 14.82792969 -13.1684375 14.71835937 -12.546875 14.60546875 C-7.62103305 13.72809095 -7.62103305 13.72809095 -3.3125 11.375 C-0.25326284 9.1052434 2.87082412 9.25034799 6.625 8.9375 C6.295 7.9475 5.965 6.9575 5.625 5.9375 C2.50622044 4.37811022 0.05244229 4.5767166 -3.375 4.9375 C-5.4884458 7.54408315 -6.3168653 9.7630959 -7.375 12.9375 C-8.035 12.9375 -8.695 12.9375 -9.375 12.9375 C-10.55582522 9.24742118 -10.66027337 5.78869054 -10.375 1.9375 C-6.54787687 -0.61391542 -4.55092939 -0.24587536 0 0 Z " fill="#FBFCFC" transform="translate(283.375,39.0625)"/>
<path d="M0 0 C2.31 0 4.62 0 7 0 C7.12375 0.96873047 7.12375 0.96873047 7.25 1.95703125 C8.28294572 6.14799333 10.12131023 9.81516566 12 13.6875 C12.36867187 14.45900391 12.73734375 15.23050781 13.1171875 16.02539062 C14.39376735 18.69269705 15.67755682 21.35511364 17 24 C14.69 24 12.38 24 10 24 C9.67 22.02 9.34 20.04 9 18 C5.04 18 1.08 18 -3 18 C-3.33 19.98 -3.66 21.96 -4 24 C-5.98 24 -7.96 24 -10 24 C-6.7 16.08 -3.4 8.16 0 0 Z M2 5 C-0.29045014 9.81209901 -0.29045014 9.81209901 -1 15 C1.64 15 4.28 15 7 15 C6.55090939 13.51800098 6.09043436 12.03944764 5.625 10.5625 C5.24214844 9.32693359 5.24214844 9.32693359 4.8515625 8.06640625 C4.19117773 5.82201984 4.19117773 5.82201984 2 5 Z " fill="#FDFDFD" transform="translate(227,132)"/>
<path d="M0 0 C1.98 0 3.96 0 6 0 C6.2266333 0.51385254 6.4532666 1.02770508 6.68676758 1.55712891 C7.72717271 3.91375394 8.76981906 6.26938106 9.8125 8.625 C10.16892578 9.43324219 10.52535156 10.24148437 10.89257812 11.07421875 C12.82679118 15.43950693 14.81994278 19.74992 17 24 C15.02 24 13.04 24 11 24 C10.34 22.02 9.68 20.04 9 18 C5.04 18 1.08 18 -3 18 C-3.33 19.98 -3.66 21.96 -4 24 C-5.98 24 -7.96 24 -10 24 C-6.7 16.08 -3.4 8.16 0 0 Z M2 5 C1.01 8.3 0.02 11.6 -1 15 C1.64 15 4.28 15 7 15 C6.55090939 13.51800098 6.09043436 12.03944764 5.625 10.5625 C5.24214844 9.32693359 5.24214844 9.32693359 4.8515625 8.06640625 C4.19117773 5.82201984 4.19117773 5.82201984 2 5 Z " fill="#FCFCFC" transform="translate(12,132)"/>
<path d="M0 0 C0.763125 0.33 1.52625 0.66 2.3125 1 C1.6525 2.65 0.9925 4.3 0.3125 6 C-0.3475 6 -1.0075 6 -1.6875 6 C-2.0175 5.34 -2.3475 4.68 -2.6875 4 C-6.66924327 2.97988395 -10.58536706 2.8124029 -14.625 3.5 C-17.00501164 4.96406404 -17.00501164 4.96406404 -18.125 8.3125 C-18.71511995 12.1810641 -18.8211048 13.75321009 -16.6875 17 C-13.00599198 19.38215225 -9.72969582 19.13874774 -5.55859375 18.4921875 C-3.11549688 17.84953571 -1.50081915 16.73776419 0.3125 15 C1.3025 15.99 2.2925 16.98 3.3125 18 C1.67982117 21.26535766 -0.28042212 21.72956418 -3.6875 23 C-8.41648064 23.60810421 -13.30680159 24.10825615 -17.7265625 22.05078125 C-20.88941928 19.58126007 -22.8521192 16.89844374 -23.6875 13 C-23.49848413 7.70755557 -22.44080168 4.75330168 -18.6875 1 C-13.12791566 -2.4611729 -6.08558658 -1.65032856 0 0 Z " fill="#FDFDFD" transform="translate(200.6875,133)"/>
<path d="M0 0 C7.92 0 15.84 0 24 0 C24 1.65 24 3.3 24 5 C20.7 4.34 17.4 3.68 14 3 C14.33 9.93 14.66 16.86 15 24 C13.02 24 11.04 24 9 24 C9.33 17.07 9.66 10.14 10 3 C7.36 3 4.72 3 2 3 C2 3.66 2 4.32 2 5 C1.34 5 0.68 5 0 5 C0 3.35 0 1.7 0 0 Z " fill="#FDFDFD" transform="translate(84,132)"/>
<path d="M0 0 C1.41949951 0.06465454 1.41949951 0.06465454 2.86767578 0.13061523 C7.88555089 0.38906364 12.79051673 0.81668643 17.75 1.625 C17.75 1.955 17.75 2.285 17.75 2.625 C13.39655438 3.13141298 9.04214175 3.62898642 4.6875 4.125 C2.84381836 4.33962891 2.84381836 4.33962891 0.96289062 4.55859375 C-0.23271484 4.69394531 -1.42832031 4.82929687 -2.66015625 4.96875 C-4.30189819 5.15727539 -4.30189819 5.15727539 -5.97680664 5.34960938 C-11.2171471 5.79050622 -16.12226499 5.86808728 -21.25 4.625 C-21.25 4.295 -21.25 3.965 -21.25 3.625 C-15.805 3.13 -15.805 3.13 -10.25 2.625 C-14.21 2.295 -18.17 1.965 -22.25 1.625 C-22.25 1.295 -22.25 0.965 -22.25 0.625 C-14.81129236 -0.53173683 -7.49002663 -0.34654237 0 0 Z " fill="#EBEEEE" transform="translate(244.25,56.375)"/>
<path d="M0 0 C9.63401065 0.41615597 18.69393547 2.65439171 28 5 C28 5.33 28 5.66 28 6 C18.61955539 5.32489224 9.32169156 4.21844445 0 3 C0 2.01 0 1.02 0 0 Z " fill="#F4F9F8" transform="translate(214,7)"/>
<path d="M0 0 C11.385 0.99 11.385 0.99 23 2 C23 2.33 23 2.66 23 3 C20.4803886 3.36599397 17.96006672 3.71800851 15.4375 4.0625 C14.73302734 4.16626953 14.02855469 4.27003906 13.30273438 4.37695312 C8.60571341 5.0046656 4.66067698 4.87579081 0 4 C0 2.68 0 1.36 0 0 Z " fill="#FCFDFC" transform="translate(239,56)"/>
<path d="M0 0 C-2 2 -2 2 -5.3125 2.1875 C-8.34749675 2.03317813 -11.05721919 1.71340141 -14 1 C-14 0.67 -14 0.34 -14 0 C-12.2300132 -0.19532961 -10.45895721 -0.38098882 -8.6875 -0.5625 C-7.70136719 -0.66691406 -6.71523437 -0.77132812 -5.69921875 -0.87890625 C-3 -1 -3 -1 0 0 Z " fill="#F3F6F6" transform="translate(237,60)"/>
<path d="" fill="#FFFFFF" transform="translate(0,0)"/>
<path d="" fill="#E9E9E9" transform="translate(0,0)"/>
<path d="" fill="#FFFFFF" transform="translate(0,0)"/>
<path d="" fill="#FFFFFF" transform="translate(0,0)"/>
</svg>
